<svg data-v-fde0c5aa="" xmlns="http://www.w3.org/2000/svg" viewBox="0 0 300 300" class="iconLeft"><!----><defs data-v-fde0c5aa=""><!----></defs><rect data-v-fde0c5aa="" fill="#FFE9E6" x="0" y="0" width="300px" height="300px" class="logo-background-square"></rect><defs data-v-fde0c5aa=""><!----></defs><g data-v-fde0c5aa="" id="b57a08dc-6f07-498f-8893-d7243fc46c45" fill="#3A1C18" transform="matrix(2.3390669938056825,0,0,2.3390669938056825,89.22472093069788,129.75537467785603)"><path d="M8.18 3.75L10.92 3.75L6.72 13.55L3.99 13.55L-0.20 3.75L2.80 3.75L5.46 10.14L8.18 3.75ZM11.70 13.55L11.70 3.75L14.48 3.75L14.48 13.55L11.70 13.55ZM23.98 8.44L23.98 8.44Q24.82 8.74 25.30 9.36L25.30 9.36L25.30 9.36Q25.77 9.98 25.77 10.86L25.77 10.86L25.77 10.86Q25.77 12.15 24.74 12.85L24.74 12.85L24.74 12.85Q23.70 13.55 21.74 13.55L21.74 13.55L16.45 13.55L16.45 3.75L21.46 3.75L21.46 3.75Q23.34 3.75 24.32 4.45L24.32 4.45L24.32 4.45Q25.30 5.14 25.30 6.31L25.30 6.31L25.30 6.31Q25.30 7.01 24.95 7.57L24.95 7.57L24.95 7.57Q24.61 8.12 23.98 8.44L23.98 8.44ZM21.10 5.75L19.19 5.75L19.19 7.64L21.10 7.64L21.10 7.64Q22.50 7.64 22.50 6.69L22.50 6.69L22.50 6.69Q22.50 5.75 21.10 5.75L21.10 5.75ZM21.52 11.55L21.52 11.55Q22.97 11.55 22.97 10.56L22.97 10.56L22.97 10.56Q22.97 9.56 21.52 9.56L21.52 9.56L19.19 9.56L19.19 11.55L21.52 11.55ZM29.96 11.41L35.08 11.41L35.08 13.55L27.22 13.55L27.22 3.75L34.90 3.75L34.90 5.89L29.96 5.89L29.96 7.55L34.31 7.55L34.31 9.62L29.96 9.62L29.96 11.41ZM40.07 13.75L40.07 13.75Q38.88 13.75 37.76 13.45L37.76 13.45L37.76 13.45Q36.64 13.16 35.94 12.67L35.94 12.67L36.85 10.63L36.85 10.63Q37.51 11.06 38.37 11.33L38.37 11.33L38.37 11.33Q39.24 11.59 40.08 11.59L40.08 11.59L40.08 11.59Q41.68 11.59 41.68 10.79L41.68 10.79L41.68 10.79Q41.68 10.37 41.22 10.17L41.22 10.17L41.22 10.17Q40.77 9.97 39.76 9.74L39.76 9.74L39.76 9.74Q38.65 9.51 37.91 9.23L37.91 9.23L37.91 9.23Q37.17 8.96 36.64 8.36L36.64 8.36L36.64 8.36Q36.11 7.76 36.11 6.73L36.11 6.73L36.11 6.73Q36.11 5.84 36.60 5.12L36.60 5.12L36.60 5.12Q37.09 4.40 38.06 3.98L38.06 3.98L38.06 3.98Q39.03 3.56 40.45 3.56L40.45 3.56L40.45 3.56Q41.41 3.56 42.35 3.77L42.35 3.77L42.35 3.77Q43.29 3.99 44.00 4.41L44.00 4.41L43.15 6.47L43.15 6.47Q41.75 5.71 40.43 5.71L40.43 5.71L40.43 5.71Q39.61 5.71 39.23 5.96L39.23 5.96L39.23 5.96Q38.85 6.20 38.85 6.59L38.85 6.59L38.85 6.59Q38.85 6.99 39.30 7.18L39.30 7.18L39.30 7.18Q39.75 7.38 40.74 7.59L40.74 7.59L40.74 7.59Q41.86 7.83 42.59 8.10L42.59 8.10L42.59 8.10Q43.33 8.37 43.87 8.97L43.87 8.97L43.87 8.97Q44.41 9.56 44.41 10.58L44.41 10.58L44.41 10.58Q44.41 11.47 43.92 12.18L43.92 12.18L43.92 12.18Q43.43 12.89 42.45 13.32L42.45 13.32L42.45 13.32Q41.47 13.75 40.07 13.75L40.07 13.75ZM47.77 13.55L47.77 5.95L44.76 5.95L44.76 3.75L53.54 3.75L53.54 5.95L50.54 5.95L50.54 13.55L47.77 13.55ZM57.32 11.41L62.44 11.41L62.44 13.55L54.57 13.55L54.57 3.75L62.26 3.75L62.26 5.89L57.32 5.89L57.32 7.55L61.67 7.55L61.67 9.62L57.32 9.62L57.32 11.41ZM70.04 13.55L68.26 10.95L66.75 10.95L66.75 13.55L63.98 13.55L63.98 3.75L68.46 3.75L68.46 3.75Q69.79 3.75 70.77 4.19L70.77 4.19L70.77 4.19Q71.75 4.63 72.28 5.45L72.28 5.45L72.28 5.45Q72.81 6.27 72.81 7.38L72.81 7.38L72.81 7.38Q72.81 8.44 72.32 9.23L72.32 9.23L72.32 9.23Q71.82 10.02 70.90 10.47L70.90 10.47L73.01 13.55L70.04 13.55ZM70.01 7.38L70.01 7.38Q70.01 6.69 69.58 6.31L69.58 6.31L69.58 6.31Q69.15 5.94 68.29 5.94L68.29 5.94L66.75 5.94L66.75 8.81L68.29 8.81L68.29 8.81Q69.15 8.81 69.58 8.43L69.58 8.43L69.58 8.43Q70.01 8.06 70.01 7.38L70.01 7.38Z"></path></g><defs data-v-fde0c5aa=""><linearGradient data-v-fde0c5aa="" gradientTransform="rotate(25)" id="60073364-2af2-4aa3-9648-f19b9a02b23e" x1="0%" y1="0%" x2="100%" y2="0%"><stop data-v-fde0c5aa="" offset="0%" stop-color="#FF5A20" stop-opacity="1"></stop><stop data-v-fde0c5aa="" offset="100%" stop-color="#FFACC7" stop-opacity="1"></stop></linearGradient></defs><g data-v-fde0c5aa="" id="06e3aec8-2b06-4937-ad8a-c1063458ec0b" stroke="none" fill="url(#60073364-2af2-4aa3-9648-f19b9a02b23e)" transform="matrix(0.35756934805342067,0,0,0.35756934805342067,40,132.12367956294267)"><path clip-rule="evenodd" d="M47.102 0h5.784c8.338.642 15.042 2.917 20.99 5.95a976.829 976.829 0 0 1-29.253 29.252c-2.969-3.846-6.214-6.932-13.221-6.279-6.848.638-12.008 6.789-12.065 13.552-.093 11.1 12.636 17.426 21.981 11.239 2.455-1.625 4.708-4.378 6.941-6.611 6.658-6.659 13.369-13.473 19.997-20.164 5.471 4.927 10.706 10.542 16.196 16.032.574.574 2.305 1.916 2.314 2.148.021.503-3.571 3.738-3.967 4.132-4.035 4.035-8.129 8.161-12.23 11.9-2.845-5.982-12.565-8.104-18.84-4.297-3.834 2.326-6.286 6.06-6.446 11.238-.221 7.125 4.855 13.32 11.9 14.047 9.767 1.009 13.735-5.969 18.51-10.742 8.042-8.042 16.394-16.425 24.295-23.963.308 16.392-5.383 28.214-13.388 36.524-8.017 8.322-18.679 14.98-33.715 16.03h-5.784c-14.023-1.231-24.828-6.812-32.558-14.543C6.814 77.715 1.225 66.916 0 52.887v-5.785C.812 33.583 7.182 22 14.709 14.544 22.682 6.645 33.328 1.089 47.102 0z"></path></g><!----></svg>